<?xml version="1.0" encoding="UTF-8"?>
<svg id="_레이어_2" data-name="레이어 2" xmlns="http://www.w3.org/2000/svg" viewBox="0 0 424.63 59.43">
  <g id="_레이어_1-2" data-name="레이어 1">
    <g>
      <polygon points="9.83 .76 0 .76 0 58.67 23.72 58.67 23.72 50.08 9.83 50.08 9.83 .76"/>
      <polygon points="27.89 58.67 52.05 58.67 52.05 50.08 37.72 50.08 37.72 33.27 51.24 33.27 51.24 25.24 37.72 25.24 37.72 9.35 52.05 9.35 52.05 .76 27.89 .76 27.89 58.67"/>
      <polygon points="57.42 58.67 81.58 58.67 81.58 50.08 67.25 50.08 67.25 33.27 80.78 33.27 80.78 25.24 67.25 25.24 67.25 9.35 81.58 9.35 81.58 .76 57.42 .76 57.42 58.67"/>
      <path d="M117.21,22.27l-.04-6.54c-.05-3.24-.7-6.03-1.95-8.37-1.24-2.34-2.97-4.15-5.18-5.44s-4.8-1.93-7.77-1.93-5.64.68-7.95,2.05c-2.3,1.36-4.07,3.24-5.32,5.64-1.24,2.39-1.87,5.18-1.87,8.37v27.25c0,3.24.62,6.05,1.87,8.43,1.24,2.38,3,4.26,5.28,5.64s4.95,2.07,8.03,2.07,5.52-.64,7.74-1.93,3.95-3.1,5.18-5.46c1.23-2.35,1.87-5.11,1.93-8.27v-6.66h-9.63v7.3c-.03,1.28-.25,2.39-.66,3.33-.42.94-.99,1.66-1.72,2.17-.74.51-1.64.76-2.71.76s-2.05-.27-2.87-.82c-.82-.55-1.44-1.32-1.87-2.31-.43-.99-.64-2.13-.64-3.41V15.33c0-1.28.21-2.41.64-3.39s1.04-1.75,1.83-2.33c.79-.57,1.76-.86,2.91-.86,1.04,0,1.95.26,2.71.78.76.52,1.35,1.26,1.77,2.21.41.95.63,2.05.66,3.31v7.22h9.63Z"/>
      <polygon points="143.82 24.92 132.38 24.92 132.38 .76 122.55 .76 122.55 58.67 132.38 58.67 132.38 33.47 143.82 33.47 143.82 58.67 153.65 58.67 153.65 .76 143.82 .76 143.82 24.92"/>
      <polygon points="159.55 58.67 183.71 58.67 183.71 50.08 169.38 50.08 169.38 33.27 182.9 33.27 182.9 25.24 169.38 25.24 169.38 9.35 183.71 9.35 183.71 .76 159.55 .76 159.55 58.67"/>
      <path d="M212.64,2.03c-2.35-1.32-5.04-1.99-8.07-1.99s-5.76.66-8.13,1.99-4.21,3.2-5.52,5.64c-1.31,2.43-1.97,5.32-1.97,8.67v26.81c0,3.32.65,6.2,1.95,8.65s3.14,4.33,5.52,5.64c2.38,1.31,5.1,1.97,8.15,1.97s5.71-.66,8.07-1.99c2.35-1.32,4.2-3.21,5.54-5.66,1.34-2.45,2.01-5.32,2.01-8.61v-26.81c0-3.34-.67-6.23-2.01-8.67-1.34-2.43-3.18-4.31-5.54-5.64ZM210.11,43.86c0,1.42-.21,2.64-.64,3.65-.43,1.02-1.07,1.79-1.93,2.33-.86.54-1.85.8-2.97.8s-2.15-.27-3.01-.82c-.86-.55-1.51-1.33-1.97-2.35-.46-1.02-.68-2.22-.68-3.61V15.57c0-1.42.23-2.63.68-3.63.45-1,1.1-1.78,1.95-2.33.84-.55,1.85-.82,3.03-.82,1.1,0,2.08.27,2.95.82.87.55,1.52,1.32,1.95,2.33.43,1,.64,2.21.64,3.63v28.29Z"/>
      <polygon points="248.07 40.69 236.07 .76 225.88 .76 225.88 58.67 234.47 58.67 234.31 18.62 234.34 18.62 246.43 58.67 256.46 58.67 256.46 .76 247.95 .76 248.07 40.69"/>
      <path d="M277.08,34.91h5.82l.04,9.15c0,1.42-.21,2.62-.62,3.59-.42.98-1,1.71-1.75,2.21-.75.5-1.66.74-2.73.74-.91,0-1.69-.14-2.35-.42-.66-.28-1.22-.72-1.71-1.32-.48-.6-.84-1.29-1.08-2.07-.24-.78-.36-1.7-.36-2.77V15.37c0-1.34.21-2.49.64-3.45.43-.96,1.03-1.72,1.81-2.27.78-.55,1.77-.82,2.97-.82,1.58,0,2.81.55,3.69,1.65.88,1.1,1.35,2.7,1.4,4.82l.04,5.62h9.59l.04-4.94c0-3.32-.64-6.17-1.91-8.55-1.27-2.38-3.02-4.21-5.26-5.48-2.23-1.27-4.81-1.91-7.72-1.91-3.1,0-5.8.68-8.09,2.03-2.29,1.35-4.05,3.23-5.3,5.64-1.24,2.41-1.87,5.23-1.87,8.47v27.13c0,2.43.36,4.63,1.08,6.6s1.75,3.67,3.09,5.1c1.34,1.43,2.95,2.52,4.84,3.27,1.89.75,3.97,1.12,6.24,1.12,2.33.03,4.39-.33,6.2-1.08,1.81-.75,3.36-1.82,4.67-3.21,1.31-1.39,2.31-3.09,3.01-5.1.7-2.01,1.04-4.23,1.04-6.66v-16.21h-15.49v7.78Z"/>
      <path d="M303.41,47.79c-1.58,0-2.88.56-3.91,1.69-1.03,1.12-1.54,2.48-1.54,4.05s.52,2.93,1.54,4.05c1.03,1.12,2.33,1.69,3.91,1.69s2.88-.56,3.97-1.69c1.1-1.12,1.65-2.47,1.65-4.05s-.55-2.93-1.65-4.05c-1.1-1.12-2.42-1.69-3.97-1.69Z"/>
      <path d="M341.77,22.27l-.04-6.54c-.05-3.24-.7-6.03-1.95-8.37-1.24-2.34-2.97-4.15-5.18-5.44s-4.8-1.93-7.77-1.93-5.64.68-7.95,2.05c-2.3,1.36-4.07,3.24-5.32,5.64-1.24,2.39-1.87,5.18-1.87,8.37v27.25c0,3.24.62,6.05,1.87,8.43,1.24,2.38,3,4.26,5.28,5.64s4.95,2.07,8.03,2.07,5.52-.64,7.74-1.93,3.95-3.1,5.18-5.46c1.23-2.35,1.87-5.11,1.93-8.27v-6.66h-9.63v7.3c-.03,1.28-.25,2.39-.66,3.33-.42.94-.99,1.66-1.72,2.17-.74.51-1.64.76-2.71.76s-2.05-.27-2.87-.82c-.82-.55-1.44-1.32-1.87-2.31-.43-.99-.64-2.13-.64-3.41V15.33c0-1.28.21-2.41.64-3.39s1.04-1.75,1.83-2.33c.79-.57,1.76-.86,2.91-.86,1.04,0,1.95.26,2.71.78.76.52,1.35,1.26,1.77,2.21.41.95.63,2.05.66,3.31v7.22h9.63Z"/>
      <path d="M370.66,2.03c-2.35-1.32-5.04-1.99-8.07-1.99s-5.76.66-8.13,1.99-4.21,3.2-5.52,5.64c-1.31,2.43-1.97,5.32-1.97,8.67v26.81c0,3.32.65,6.2,1.95,8.65s3.14,4.33,5.52,5.64c2.38,1.31,5.1,1.97,8.15,1.97s5.71-.66,8.07-1.99c2.35-1.32,4.2-3.21,5.54-5.66,1.34-2.45,2.01-5.32,2.01-8.61v-26.81c0-3.34-.67-6.23-2.01-8.67-1.34-2.43-3.18-4.31-5.54-5.64ZM368.13,43.86c0,1.42-.21,2.64-.64,3.65-.43,1.02-1.07,1.79-1.93,2.33-.86.54-1.85.8-2.97.8s-2.15-.27-3.01-.82c-.86-.55-1.51-1.33-1.97-2.35-.46-1.02-.68-2.22-.68-3.61V15.57c0-1.42.23-2.63.68-3.63.45-1,1.1-1.78,1.95-2.33.84-.55,1.85-.82,3.03-.82,1.1,0,2.08.27,2.95.82.87.55,1.52,1.32,1.95,2.33.43,1,.64,2.21.64,3.63v28.29Z"/>
      <polygon points="411.35 .76 404.41 44.34 404.13 44.34 397.19 .76 383.91 .76 383.91 58.67 392.53 58.67 392.49 14.97 392.56 14.97 399.96 58.67 408.62 58.67 416.02 14.97 416.09 14.97 416.05 58.67 424.63 58.67 424.63 .76 411.35 .76"/>
    </g>
  </g>
</svg>