<?xml version="1.0" encoding="UTF-8"?>
<svg id="_레이어_2" data-name="레이어 2" xmlns="http://www.w3.org/2000/svg" viewBox="0 0 1986.19 212.89">
  <defs>
    <style>
      .cls-1 {
        fill: #fff;
      }
    </style>
  </defs>
  <g id="_레이어_1-2" data-name="레이어 1">
    <g>
      <g>
        <path class="cls-1" d="M440.58,3.95h40.88v167.45h94.72v34.11h-135.6V3.95Z"/>
        <path class="cls-1" d="M582.13,3.95h148.28v34.39h-107.41v45.1h94.16v33.55h-94.16v54.41h108.25v34.11h-149.13V3.95Z"/>
        <path class="cls-1" d="M745.18,3.95h148.28v34.39h-107.41v45.1h94.16v33.55h-94.16v54.41h108.25v34.11h-149.13V3.95Z"/>
        <path class="cls-1" d="M894.39,105.43c0-59.76,37.21-105.43,96.69-105.43,49.62,0,78.93,29.6,83.16,67.94h-40.6c-3.66-20.3-18.89-33.55-42.57-33.55-37.21,0-54.97,31.01-54.97,71.04s21.42,70.76,55.25,70.76c23.96,0,40.88-14.38,43.41-35.52h40.03c-1.13,17.76-8.74,34.96-22.27,47.64-13.81,12.97-33.27,21.42-61.17,21.42-56.66,0-96.98-43.7-96.98-104.31Z"/>
        <path class="cls-1" d="M1085.64,3.95h40.88v78.93h79.21V3.95h40.88v201.56h-40.88v-88.8h-79.21v88.8h-40.88V3.95Z"/>
        <path class="cls-1" d="M1268.09,3.95h148.28v34.39h-107.41v45.1h94.16v33.55h-94.16v54.41h108.25v34.11h-149.13V3.95Z"/>
        <path class="cls-1" d="M1418.23,105.15c0-60.33,37.78-105.15,97.26-105.15s96.98,44.82,96.98,105.15-37.49,104.87-96.98,104.87-97.26-44.54-97.26-104.87ZM1570.75,105.15c0-40.31-18.04-71.6-54.97-71.6s-55.82,31.29-55.82,71.6,18.89,71.32,55.82,71.32,54.97-31.29,54.97-71.32Z"/>
        <path class="cls-1" d="M1624.57,3.95h41.44l67.09,112.48c6.48,10.99,14.1,28.19,14.1,28.19h.56s-1.13-20.86-1.13-34.96V3.95h40.31v201.56h-39.47l-68.79-111.35c-6.48-10.71-14.38-27.91-14.38-27.91h-.56s1.13,21.14,1.13,35.24v104.02h-40.31V3.95Z"/>
        <path class="cls-1" d="M1954.06,178.45h-.56c-13.81,23.12-32.7,31.29-56.66,31.29-30.45,0-54.12-10.99-70.76-29.32-16.63-18.61-26.22-44.54-26.22-74.99,0-33.55,11.84-62.87,32.98-82.32,16.35-14.94,37.78-23.12,64.84-23.12,50.74,0,79.78,27.91,86.26,67.38h-40.03c-4.51-19.45-19.45-33.55-45.39-33.55-38.06,0-56.95,31.57-56.95,71.6s21.71,71.32,56.38,71.32c31.29,0,51.87-23.4,51.87-45.67v-1.13h-48.49v-31.57h84.85v107.12h-30.73l-1.41-27.06Z"/>
      </g>
      <g>
        <path class="cls-1" d="M57,18.16c35.83,0,57.23,32.34,57.23,76.31s-21.4,76.77-57.23,76.77S0,138.44,0,94.7,21.87,18.16,57,18.16ZM57,51.43c-11.63,0-21.4,13.49-21.4,43.04s9.77,43.27,21.4,43.27c12.33,0,21.87-13.26,21.87-43.27s-9.54-43.04-21.87-43.04ZM135.17,212.89V3.5h36.29v209.39h-36.29Z"/>
        <path class="cls-1" d="M366.22,133.79h-36.76v-39.78h-29.08v-23.5h-29.08c4.19,18.38,22.33,28.62,40.25,32.11l-16.75,27.69c-16.52-3.49-36.76-16.52-43.04-30.48-6.05,15.82-26.75,33.04-46.3,38.62l-17.45-28.62c22.33-6.28,38.85-20.01,42.81-39.32h-35.83v-27.22h111.91v20.24h22.57V3.5h36.76v130.28ZM289.91,212.89c-47.23,0-76.77-15.12-76.77-39.55s29.55-39.32,76.77-39.32,76.08,14.89,76.08,39.32-29.55,39.55-76.08,39.55ZM221.28,33.98V8.39h60.72v25.59h-60.72ZM251.52,173.34c0,6.98,13.96,12.1,38.39,12.1s37.22-5.12,37.22-12.1-12.8-12.1-37.22-12.1-38.39,5.35-38.39,12.1Z"/>
      </g>
    </g>
  </g>
</svg>